<svg xmlns="http://www.w3.org/2000/svg" width="32" height="32" viewBox="0 0 512 512">
<path d="m463.7 359.414c-19.948-1.949-34.99-18.561-34.99-38.64 0-21.411 17.42-38.831 38.831-38.831v-30c-21.411 0-38.831-17.419-38.831-38.83 0-14.929 8.337-28.294 21.758-34.881l15.872-7.791-10.273-14.391c-20.75-29.065-48.168-47.327-79.289-52.809-6.385-1.125-12.911-1.695-19.397-1.695-24.453 0-49.427 8.155-72.221 23.583-2.841 1.923-5.878 3.477-9.047 4.657v-49.431c-.001-44.308-36.048-80.355-80.357-80.355h-15.991v30h15.991c27.767 0 50.355 22.589 50.355 50.355v49.432c-3.169-1.181-6.205-2.735-9.046-4.657-22.795-15.428-47.769-23.583-72.223-23.583-6.486 0-13.013.57-19.397 1.695-40.464 7.128-74.298 35.627-95.27 80.248-20.142 42.853-26.049 95.885-16.635 149.327 8.643 49.061 29.718 94.151 59.343 126.969 30.413 33.688 67.657 52.241 104.873 52.241 6.488 0 13.017-.57 19.403-1.695 8.841-1.558 17.512-4.192 25.771-7.832 5.785-2.549 11.901-3.842 18.181-3.842 6.278 0 12.396 1.293 18.18 3.842 8.261 3.64 16.932 6.274 25.771 7.832 6.382 1.124 12.909 1.694 19.4 1.695h.013c31.509-.001 62.766-13.073 90.387-37.803 26.503-23.729 47.769-56.518 61.498-94.82l6.495-18.118z"/>
</svg>
