<svg xmlns="http://www.w3.org/2000/svg" width="32" height="32"><path fill="none" stroke="#000" stroke-width="2" stroke-linecap="round" stroke-linejoin="round" stroke-miterlimit="10" d="M29.613 20.596a4 4 0 0 1-2.826 4.896l-15.384 4.122a3.999 3.999 0 0 1-4.895-2.826L2.387 11.403a3.997 3.997 0 0 1 2.825-4.894l15.384-4.122a3.998 3.998 0 0 1 4.896 2.826l4.121 15.383z"/><g fill="none" stroke="#000" stroke-width="2" stroke-linecap="round" stroke-linejoin="round" stroke-miterlimit="10"><path d="M8.676 11.771l4.883 2.819M12.528 10.74l-2.82 4.882"/></g><circle fill="none" stroke="#000" stroke-width="2" stroke-linecap="round" stroke-linejoin="round" stroke-miterlimit="10" cx="18.818" cy="11.117" r=".997"/><path fill="none" stroke="#000" stroke-width="2" stroke-linecap="round" stroke-linejoin="round" stroke-miterlimit="10" d="M12.279 24.219a6.97 6.97 0 0 1 4.752-4.369 6.97 6.97 0 0 1 6.3 1.409"/></svg>